<svg xmlns="http://www.w3.org/2000/svg" xmlns:xlink="http://www.w3.org/1999/xlink" width="500" zoomAndPan="magnify" viewBox="0 0 375 374.999991" height="500" preserveAspectRatio="xMidYMid meet" version="1.0"><defs><clipPath id="id1"><path d="M 220 32.8125 L 375 32.8125 L 375 342.5625 L 220 342.5625 Z M 220 32.8125 " clip-rule="nonzero"/></clipPath><clipPath id="id2"><path d="M 0 32.8125 L 155 32.8125 L 155 342.5625 L 0 342.5625 Z M 0 32.8125 " clip-rule="nonzero"/></clipPath></defs><g clip-path="url(#id1)"><path fill="rgb(92.549133%, 49.01886%, 19.219971%)" d="M 220.085938 32.777344 L 220.085938 96.125 L 311.492188 187.644531 L 220.085938 279.164062 L 220.085938 342.511719 L 374.765625 187.644531 Z M 220.085938 32.777344 " fill-opacity="1" fill-rule="nonzero"/></g><g clip-path="url(#id2)"><path fill="rgb(92.549133%, 49.01886%, 19.219971%)" d="M 155 96.125 L 155 32.777344 L 0.320312 187.644531 L 155 342.511719 L 155 279.164062 L 63.589844 187.644531 Z M 155 96.125 " fill-opacity="1" fill-rule="nonzero"/></g><path fill="rgb(92.549133%, 49.01886%, 19.219971%)" d="M 111.996094 187.644531 L 187.539062 112.011719 L 263.082031 187.644531 L 187.539062 263.277344 Z M 111.996094 187.644531 " fill-opacity="1" fill-rule="nonzero"/></svg>